HIERARCHY
ROOT Hips
{
	OFFSET 0.000000 0.000000 0.000000 
	CHANNELS 6 Xposition Yposition Zposition Yrotation Zrotation Xrotation 
	JOINT Lumbar
	{
		OFFSET 0.000000 0.000000 0.000000 
		CHANNELS 3 Zrotation Xrotation Yrotation
		JOINT Neck
		{
			OFFSET 0.000000 0.445665 0.000000 
			CHANNELS 3 Zrotation Xrotation Yrotation
			End Site
			{
				OFFSET 0.000000 0.227535 0.000000 
			}
		}
		JOINT RightShoulder
		{
			OFFSET 0.019635 0.377685 0.194865 
			CHANNELS 3 Zrotation Xrotation Yrotation
			JOINT RightElbow
			{
				OFFSET 0.000000 -0.243375 0.000000 
				CHANNELS 2 Zrotation Yrotation
				JOINT RightWrist
				{
					OFFSET 0.000000 -0.264825 0.000000 
					CHANNELS 2 Zrotation Xrotation
					End Site
					{
						OFFSET 0.006600 -0.176220 0.000990 
					}
				}
			}
		}
		JOINT LeftShoulder
		{
			OFFSET 0.019635 0.377685 -0.194865 
			CHANNELS 3 Zrotation Xrotation Yrotation
			JOINT LeftElbow
			{
				OFFSET 0.000000 -0.243375 0.000000 
				CHANNELS 2 Zrotation Yrotation
				JOINT LeftWrist
				{
					OFFSET 0.000000 -0.264825 0.000000 
					CHANNELS 2 Zrotation Xrotation
					End Site
					{
						OFFSET 0.006600 -0.176220 -0.000990 
					}
				}
			}
		}
	}
	JOINT RightHip
	{
		OFFSET 0.052140 -0.069960 0.075570 
		CHANNELS 3 Zrotation Xrotation Yrotation
		JOINT RightKnee
		{
			OFFSET 0.000000 -0.402270 0.000000 
			CHANNELS 1 Zrotation
			JOINT RightAnkle
			{
				OFFSET 0.000000 -0.404085 0.000000 
				CHANNELS 3 Zrotation Xrotation Yrotation
				End Site
				{
					OFFSET 0.204105 -0.089430 0.008415 
				}
			}
		}
	}
	JOINT LeftHip
	{
		OFFSET 0.052140 -0.069960 -0.075570 
		CHANNELS 3 Zrotation Xrotation Yrotation
		JOINT LeftKnee
		{
			OFFSET 0.000000 -0.402270 0.000000 
			CHANNELS 1 Zrotation
			JOINT LeftAnkle
			{
				OFFSET 0.000000 -0.404085 0.000000 
				CHANNELS 3 Zrotation Xrotation Yrotation
				End Site
				{
					OFFSET 0.204105 -0.089430 -0.008415 
				}
			}
		}
	}
}
MOTION
Frames: 11
Frame Time: 0.02
-0.00023 3e-05 -0.00213 173.47007 -48.22288 -0.75528 60.47572 -0.5063 0.72645 -16.18097 -0.46894 -0.13547 68.87382 -110.01596 218.41822 5.32853 154.42526 26.31241 10.91555 48.94382 112.27441 -64.17026 5.32823 -93.22819 10.23942 -0.44191 51.64168 -2.63414 -4.92986 -18.97916 -8.25965 -5.17786 -3.51729 55.43781 5.24218 -3.8836 -24.41602 -10.20034 5.88594 4.0305
-0.00036 0.00015 -0.00182 173.40143 -48.29668 -0.73391 60.47571 -0.48569 0.79875 -16.35102 -0.43208 -0.13648 68.71594 -110.16777 187.50162 5.32853 145.83062 22.44823 9.8952 50.60522 113.03346 -64.18491 5.32829 -95.18313 10.9275 -0.63306 51.70471 -2.72988 -5.26244 -18.9573 -8.22755 -5.14469 -3.49312 55.48421 5.38543 -3.02155 -24.41017 -10.10336 5.83829 3.99406
-0.00049 0.00028 -0.00151 173.33303 -48.37027 -0.71251 60.4757 -0.46512 0.87082 -16.52057 -0.39541 -0.13749 68.5581 -110.31921 156.68026 5.32853 137.26252 18.59582 8.87802 52.26235 113.78882 -64.16064 5.32836 -97.12081 11.60395 -0.82275 51.76761 -2.82533 -5.59341 -18.93551 -8.19559 -5.11165 -3.46906 55.53049 5.52824 -2.16168 -24.40436 -10.00661 5.79074 3.95772
-0.00062 0.0004 -0.0012 173.26461 -48.44385 -0.6912 60.47569 -0.44457 0.9429 -16.6901 -0.35869 -0.1385 68.40063 -110.4706 125.8589 5.32853 128.69444 14.74352 7.86083 53.91878 114.54532 -64.1677 5.32843 -99.06756 12.28805 -1.01313 51.83045 -2.92078 -5.92486 -18.91371 -8.1636 -5.07859 -3.44497 55.57675 5.67106 -1.30219 -24.39853 -9.90992 5.74323 3.9214
-0.00076 0.00053 -0.00089 173.19594 -48.51761 -0.66997 60.47568 -0.424 1.01522 -16.86009 -0.32175 -0.1395 68.24328 -110.62224 94.9423 5.32853 120.09958 10.87951 6.84041 55.57911 115.30602 -64.2317 5.32849 -101.03671 12.98822 -1.2054 51.8934 -3.0165 -6.25815 -18.89185 -8.13145 -5.04537 -3.42077 55.6231 5.81433 -0.44072 -24.39268 -9.81301 5.69563 3.88499
-0.00089 0.00065 -0.00058 173.1281 -48.59084 -0.64822 60.47567 -0.40342 1.08674 -17.02871 -0.28564 -0.14052 68.08442 -110.77318 64.32288 5.32853 111.5881 7.05171 5.83007 57.22942 116.05014 -64.02415 5.32856 -102.90876 13.61539 -1.38972 51.95618 -3.11138 -6.58425 -18.87021 -8.09988 -5.01271 -3.397 55.66922 5.95616 0.41569 -24.38696 -9.71662 5.64822 3.84879
-0.00102 0.00078 -0.00027 173.05869 -48.66508 -0.62752 60.47566 -0.38288 1.15979 -17.19994 -0.24791 -0.14152 67.92876 -110.92562 33.14104 5.32853 102.91929 3.15545 4.80075 58.89807 116.82672 -64.35338 5.32862 -104.97129 14.38619 -1.58955 52.01924 -3.20785 -6.9244 -18.84814 -8.06719 -4.97897 -3.37239 55.71578 6.10072 1.28141 -24.38096 -9.61928 5.60046 3.81222
-0.00115 0.0009 4e-05 172.99067 -48.73835 -0.60588 60.47565 -0.36231 1.23146 -17.3687 -0.21167 -0.14253 67.7702 -111.0762 2.47452 5.32852 94.3936 -0.67799 3.78858 60.5498 117.57349 -64.20561 5.32869 -106.86336 15.0292 -1.77557 52.08202 -3.30285 -7.2517 -18.82647 -8.03553 -4.94622 -3.34854 55.76191 6.24276 2.13842 -24.37522 -9.52284 5.55304 3.77599
-0.00128 0.00102 0.00036 172.92455 -48.8106 -0.58295 60.47564 -0.34168 1.30134 -17.53475 -0.17727 -0.14357 67.60774 -111.22648 -27.56177 5.32852 86.04709 -4.43506 2.79836 62.18173 118.28341 -63.39632 5.32875 -108.52525 15.49607 -1.94266 52.14459 -3.3961 -7.56288 -18.80528 -8.00513 -4.91471 -3.32565 55.80764 6.38179 2.9857 -24.36979 -9.42735 5.50593 3.74016
-0.00144 0.00116 0.00065 172.84809 -48.88924 -0.56701 60.47562 -0.32131 1.38121 -17.71733 -0.13235 -0.14447 67.46664 -111.38444 -61.22413 5.32852 76.68215 -8.63292 1.6848 63.93031 119.20413 -66.15652 5.32882 -111.44578 16.91629 -2.21251 52.20875 -3.49956 -7.96559 -18.78129 -7.9675 -4.87613 -3.29734 55.85606 6.53839 3.89176 -24.36258 -9.32596 5.45675 3.70195
-0.00153 0.00126 0.00098 172.79311 -48.95408 -0.5366 60.47562 -0.30044 1.44018 -17.86443 -0.10958 -0.14567 67.28124 -111.52236 -87.23388 5.32852 69.45855 -11.8996 0.82963 65.4308 119.68095 -61.54128 5.32888 -111.75389 16.36454 -2.26956 52.26931 -3.58139 -8.176 -18.76325 -7.94509 -4.85246 -3.28042 55.89853 6.65775 4.67191 -24.35913 -9.23728 5.41212 3.66885
